<svg width="24" height="24" viewBox="0 0 24 24" fill="none" xmlns="http://www.w3.org/2000/svg">
<path d="M12 17.75C12.4641 17.75 12.9092 17.5656 13.2374 17.2374C13.5656 16.9092 13.75 16.4641 13.75 16C13.75 15.5359 13.5656 15.0908 13.2374 14.7626C12.9092 14.4344 12.4641 14.25 12 14.25C11.5359 14.25 11.0908 14.4344 10.7626 14.7626C10.4344 15.0908 10.25 15.5359 10.25 16C10.25 16.4641 10.4344 16.9092 10.7626 17.2374C11.0908 17.5656 11.5359 17.75 12 17.75Z" fill="#F7BB09" stroke="#F7BB09" stroke-width="1.5" stroke-linecap="round" stroke-linejoin="round"/>
<path d="M21 7.35299V16.647C21.0001 16.7541 20.9714 16.8593 20.9171 16.9516C20.8627 17.0439 20.7847 17.12 20.691 17.172L12.291 21.838C12.202 21.8874 12.1018 21.9133 12 21.9133C11.8982 21.9133 11.798 21.8874 11.709 21.838L3.309 17.172C3.21532 17.12 3.13725 17.0439 3.08292 16.9516C3.02858 16.8593 2.99995 16.7541 3 16.647V7.35299C3.00013 7.24604 3.02884 7.14106 3.08317 7.04893C3.1375 6.9568 3.21547 6.88087 3.309 6.82899L11.709 2.16199C11.798 2.11261 11.8982 2.0867 12 2.0867C12.1018 2.0867 12.202 2.11261 12.291 2.16199L20.691 6.82899C20.7845 6.88087 20.8625 6.9568 20.9168 7.04893C20.9712 7.14106 20.9999 7.24604 21 7.35299Z" stroke="black" stroke-width="1.5" stroke-linecap="round" stroke-linejoin="round"/>
<path d="M20.5 16.722L12.291 12.162C12.202 12.1126 12.1018 12.0867 12 12.0867C11.8982 12.0867 11.798 12.1126 11.709 12.162L3.5 16.722M3.528 7.294L11.708 11.838C11.7972 11.8876 11.8975 11.9136 11.9995 11.9136C12.1015 11.9136 12.2018 11.8876 12.291 11.838L20.5 7.278M12 3V12M12 19.5V22" stroke="black" stroke-width="1.5" stroke-linecap="round" stroke-linejoin="round"/>
</svg>
