<svg width="26" height="30" viewBox="0 0 26 30" fill="none" xmlns="http://www.w3.org/2000/svg">
<path d="M19.196 30H4.73254C4.00936 30 3.40283 29.4168 3.40283 28.6703V1.3297C3.40283 0.606531 3.98604 0 4.73254 0H24.4915C25.2146 0 25.8212 0.583203 25.8212 1.3297V23.3981C23.2084 25.9876 21.7621 27.4339 19.196 30Z" fill="#102427"/>
<path d="M25.7978 23.3981H19.1959V30C21.762 27.4339 23.2084 25.9876 25.7978 23.3981Z" fill="#B2B2B2"/>
<path d="M6.31879 10.381H13.3872" stroke="white" stroke-width="0.2" stroke-miterlimit="10"/>
<path d="M15.72 10.381H22.8118" stroke="white" stroke-width="0.2" stroke-miterlimit="10"/>
<path d="M6.31879 11.5008H13.3872" stroke="white" stroke-width="0.2" stroke-miterlimit="10"/>
<path d="M6.31879 12.5972H13.3872" stroke="white" stroke-width="0.2" stroke-miterlimit="10"/>
<path d="M6.31879 13.7169H13.3872" stroke="white" stroke-width="0.2" stroke-miterlimit="10"/>
<path d="M6.31879 14.6967H13.3872" stroke="white" stroke-width="0.2" stroke-miterlimit="10"/>
<path d="M6.31879 15.6999H13.3872" stroke="white" stroke-width="0.2" stroke-miterlimit="10"/>
<path d="M6.31879 16.7963H13.3872" stroke="white" stroke-width="0.2" stroke-miterlimit="10"/>
<path d="M6.31879 17.7994H13.3872" stroke="white" stroke-width="0.2" stroke-miterlimit="10"/>
<path d="M6.31879 18.7791H13.3872" stroke="white" stroke-width="0.2" stroke-miterlimit="10"/>
<path d="M6.31879 19.8989H13.3872" stroke="white" stroke-width="0.2" stroke-miterlimit="10"/>
<path d="M6.31879 20.9954H13.3872" stroke="white" stroke-width="0.2" stroke-miterlimit="10"/>
<path d="M6.31879 22.1151H13.3872" stroke="white" stroke-width="0.2" stroke-miterlimit="10"/>
<path d="M15.72 11.5008H22.8118" stroke="white" stroke-width="0.2" stroke-miterlimit="10"/>
<path d="M15.72 12.5972H22.8118" stroke="white" stroke-width="0.2" stroke-miterlimit="10"/>
<path d="M15.72 13.7169H22.8118" stroke="white" stroke-width="0.2" stroke-miterlimit="10"/>
<path d="M15.6501 14.6967H22.7185" stroke="white" stroke-width="0.2" stroke-miterlimit="10"/>
<path d="M15.72 15.6999H22.8118" stroke="white" stroke-width="0.2" stroke-miterlimit="10"/>
<path d="M15.72 16.7963H22.8118" stroke="white" stroke-width="0.2" stroke-miterlimit="10"/>
<path d="M15.72 17.7994H22.8118" stroke="white" stroke-width="0.2" stroke-miterlimit="10"/>
<path d="M15.72 18.7791H22.8118" stroke="white" stroke-width="0.2" stroke-miterlimit="10"/>
<path d="M15.72 19.8989H22.8118" stroke="white" stroke-width="0.2" stroke-miterlimit="10"/>
<path d="M15.72 20.9954H22.8118" stroke="white" stroke-width="0.2" stroke-miterlimit="10"/>
<path d="M15.72 22.1151H22.8118" stroke="white" stroke-width="0.2" stroke-miterlimit="10"/>
<path d="M15.8837 7H1.11628C0.488373 7 0 6.47368 0 5.85167V3.14832C0 2.50239 0.511629 2 1.11628 2H15.8837C16.5116 2 17 2.52631 17 3.14832V5.85167C17 6.47368 16.5116 7 15.8837 7Z" fill="#8D6160"/>
<path d="M4.35227 6V3.09091H5.33523C5.56345 3.09091 5.75 3.1321 5.89489 3.21449C6.04072 3.29593 6.14867 3.40625 6.21875 3.54545C6.28883 3.68466 6.32386 3.83996 6.32386 4.01136C6.32386 4.18277 6.28883 4.33854 6.21875 4.47869C6.14962 4.61884 6.04261 4.73059 5.89773 4.81392C5.75284 4.89631 5.56723 4.9375 5.34091 4.9375H4.63636V4.625H5.32955C5.4858 4.625 5.61127 4.59801 5.70597 4.54403C5.80066 4.49006 5.86932 4.41714 5.91193 4.32528C5.95549 4.23248 5.97727 4.12784 5.97727 4.01136C5.97727 3.89489 5.95549 3.79072 5.91193 3.69886C5.86932 3.60701 5.80019 3.53504 5.70455 3.48295C5.6089 3.42992 5.48201 3.40341 5.32386 3.40341H4.70455V6H4.35227ZM7.78906 6H6.89134V3.09091H7.82884C8.11103 3.09091 8.35251 3.14915 8.55327 3.26562C8.75402 3.38116 8.90791 3.54735 9.01491 3.7642C9.12192 3.98011 9.17543 4.23864 9.17543 4.53977C9.17543 4.8428 9.12145 5.10369 9.01349 5.32244C8.90554 5.54025 8.74834 5.70786 8.5419 5.82528C8.33546 5.94176 8.08452 6 7.78906 6ZM7.24361 5.6875H7.76634C8.00687 5.6875 8.2062 5.6411 8.36435 5.5483C8.52249 5.45549 8.64039 5.32339 8.71804 5.15199C8.79569 4.98059 8.83452 4.77652 8.83452 4.53977C8.83452 4.30492 8.79616 4.10275 8.71946 3.93324C8.64276 3.76278 8.52817 3.6321 8.37571 3.54119C8.22325 3.44934 8.03338 3.40341 7.80611 3.40341H7.24361V5.6875ZM9.76634 6V3.09091H11.5107V3.40341H10.1186V4.38636H11.38V4.69886H10.1186V6H9.76634Z" fill="white"/>
</svg>
